<mxfile host="app.diagrams.net" modified="2022-07-19T21:04:03.436Z" agent="5.0 (Windows)" etag="bd0hZjisiG82APAewnec" version="20.1.1" type="github">
  <diagram id="kgpKYQtTHZ0yAKxKKP6v" name="Page-1">
    <mxGraphModel dx="2368" dy="1232" grid="1" gridSize="10" guides="1" tooltips="1" connect="1" arrows="1" fold="1" page="1" pageScale="1" pageWidth="1169" pageHeight="827" math="0" shadow="0">
      <root>
        <mxCell id="0" />
        <mxCell id="1" parent="0" />
        <mxCell id="IHDmYLQubq7b0O7IPrWK-1" value="MainMenu" style="shape=umlLifeline;perimeter=lifelinePerimeter;container=1;collapsible=0;recursiveResize=0;rounded=0;shadow=0;strokeWidth=1;" vertex="1" parent="1">
          <mxGeometry x="160" y="60" width="100" height="1010" as="geometry" />
        </mxCell>
        <mxCell id="IHDmYLQubq7b0O7IPrWK-10" value="MapManger" style="shape=umlLifeline;perimeter=lifelinePerimeter;container=1;collapsible=0;recursiveResize=0;rounded=0;shadow=0;strokeWidth=1;" vertex="1" parent="1">
          <mxGeometry x="330" y="60" width="100" height="990" as="geometry" />
        </mxCell>
        <mxCell id="H7HSWciS5RbThtjPVSTO-12" value="" style="points=[];perimeter=orthogonalPerimeter;rounded=0;shadow=0;strokeWidth=1;" vertex="1" parent="IHDmYLQubq7b0O7IPrWK-10">
          <mxGeometry x="45" y="630" width="10" height="60" as="geometry" />
        </mxCell>
        <mxCell id="IHDmYLQubq7b0O7IPrWK-12" value="Player" style="shape=umlLifeline;perimeter=lifelinePerimeter;container=1;collapsible=0;recursiveResize=0;rounded=0;shadow=0;strokeWidth=1;" vertex="1" parent="1">
          <mxGeometry x="510" y="60" width="140" height="1040" as="geometry" />
        </mxCell>
        <mxCell id="IHDmYLQubq7b0O7IPrWK-11" value="" style="points=[];perimeter=orthogonalPerimeter;rounded=0;shadow=0;strokeWidth=1;" vertex="1" parent="IHDmYLQubq7b0O7IPrWK-12">
          <mxGeometry x="65" y="100" width="10" height="80" as="geometry" />
        </mxCell>
        <mxCell id="IHDmYLQubq7b0O7IPrWK-27" value="" style="points=[];perimeter=orthogonalPerimeter;rounded=0;shadow=0;strokeWidth=1;" vertex="1" parent="IHDmYLQubq7b0O7IPrWK-12">
          <mxGeometry x="65" y="230" width="10" height="70" as="geometry" />
        </mxCell>
        <mxCell id="IHDmYLQubq7b0O7IPrWK-30" value="&lt;div&gt;PlayerCombact.attack()&lt;/div&gt;" style="html=1;verticalAlign=bottom;startArrow=oval;startFill=1;endArrow=block;startSize=8;rounded=0;" edge="1" parent="IHDmYLQubq7b0O7IPrWK-12" target="IHDmYLQubq7b0O7IPrWK-13">
          <mxGeometry x="0.0042" width="60" relative="1" as="geometry">
            <mxPoint x="80" y="220" as="sourcePoint" />
            <mxPoint x="170" y="220" as="targetPoint" />
            <mxPoint as="offset" />
          </mxGeometry>
        </mxCell>
        <mxCell id="H7HSWciS5RbThtjPVSTO-7" value="" style="points=[];perimeter=orthogonalPerimeter;rounded=0;shadow=0;strokeWidth=1;" vertex="1" parent="IHDmYLQubq7b0O7IPrWK-12">
          <mxGeometry x="65" y="550" width="10" height="60" as="geometry" />
        </mxCell>
        <mxCell id="H7HSWciS5RbThtjPVSTO-10" value="" style="edgeStyle=orthogonalEdgeStyle;html=1;align=left;spacingLeft=2;endArrow=block;rounded=0;labelBackgroundColor=default;labelBorderColor=none;" edge="1" parent="IHDmYLQubq7b0O7IPrWK-12">
          <mxGeometry relative="1" as="geometry">
            <mxPoint x="75" y="100" as="sourcePoint" />
            <Array as="points">
              <mxPoint x="137" y="100" />
              <mxPoint x="137" y="180" />
            </Array>
            <mxPoint x="77" y="180" as="targetPoint" />
          </mxGeometry>
        </mxCell>
        <mxCell id="IHDmYLQubq7b0O7IPrWK-13" value="Enemy" style="shape=umlLifeline;perimeter=lifelinePerimeter;container=1;collapsible=0;recursiveResize=0;rounded=0;shadow=0;strokeWidth=1;" vertex="1" parent="1">
          <mxGeometry x="690" y="60" width="140" height="1020" as="geometry" />
        </mxCell>
        <mxCell id="IHDmYLQubq7b0O7IPrWK-29" value="" style="points=[];perimeter=orthogonalPerimeter;rounded=0;shadow=0;strokeWidth=1;" vertex="1" parent="IHDmYLQubq7b0O7IPrWK-13">
          <mxGeometry x="65" y="220" width="10" height="80" as="geometry" />
        </mxCell>
        <mxCell id="IHDmYLQubq7b0O7IPrWK-31" value="" style="edgeStyle=orthogonalEdgeStyle;html=1;align=left;spacingLeft=2;endArrow=block;rounded=0;labelBackgroundColor=default;labelBorderColor=none;entryX=1.2;entryY=0.98;entryDx=0;entryDy=0;entryPerimeter=0;exitX=0.8;exitY=0.02;exitDx=0;exitDy=0;exitPerimeter=0;" edge="1" parent="IHDmYLQubq7b0O7IPrWK-13" source="IHDmYLQubq7b0O7IPrWK-36" target="IHDmYLQubq7b0O7IPrWK-36">
          <mxGeometry relative="1" as="geometry">
            <mxPoint x="65" y="360" as="sourcePoint" />
            <Array as="points">
              <mxPoint x="120" y="352" />
              <mxPoint x="120" y="448" />
            </Array>
            <mxPoint x="67" y="440" as="targetPoint" />
          </mxGeometry>
        </mxCell>
        <mxCell id="IHDmYLQubq7b0O7IPrWK-32" value="EnemyManager.die()" style="edgeLabel;html=1;align=center;verticalAlign=middle;resizable=0;points=[];" vertex="1" connectable="0" parent="IHDmYLQubq7b0O7IPrWK-31">
          <mxGeometry x="-0.1852" y="3" relative="1" as="geometry">
            <mxPoint x="50" y="16" as="offset" />
          </mxGeometry>
        </mxCell>
        <mxCell id="IHDmYLQubq7b0O7IPrWK-36" value="" style="points=[];perimeter=orthogonalPerimeter;rounded=0;shadow=0;strokeWidth=1;" vertex="1" parent="IHDmYLQubq7b0O7IPrWK-13">
          <mxGeometry x="65" y="350" width="10" height="100" as="geometry" />
        </mxCell>
        <mxCell id="IHDmYLQubq7b0O7IPrWK-37" value="" style="edgeStyle=orthogonalEdgeStyle;html=1;align=left;spacingLeft=2;endArrow=block;rounded=0;labelBackgroundColor=default;labelBorderColor=none;entryX=1;entryY=0.988;entryDx=0;entryDy=0;entryPerimeter=0;exitX=0.8;exitY=0;exitDx=0;exitDy=0;exitPerimeter=0;" edge="1" parent="IHDmYLQubq7b0O7IPrWK-13" source="IHDmYLQubq7b0O7IPrWK-29" target="IHDmYLQubq7b0O7IPrWK-29">
          <mxGeometry relative="1" as="geometry">
            <mxPoint x="-170" y="230" as="sourcePoint" />
            <Array as="points">
              <mxPoint x="130" y="220" />
              <mxPoint x="130" y="299" />
            </Array>
            <mxPoint x="-168" y="310" as="targetPoint" />
          </mxGeometry>
        </mxCell>
        <mxCell id="IHDmYLQubq7b0O7IPrWK-38" value="EnemyManager.takeDamage()" style="edgeLabel;html=1;align=center;verticalAlign=middle;resizable=0;points=[];" vertex="1" connectable="0" parent="IHDmYLQubq7b0O7IPrWK-37">
          <mxGeometry x="-0.1852" y="3" relative="1" as="geometry">
            <mxPoint x="27" y="19" as="offset" />
          </mxGeometry>
        </mxCell>
        <mxCell id="H7HSWciS5RbThtjPVSTO-1" value="&lt;div&gt;alt&lt;/div&gt;" style="shape=umlFrame;whiteSpace=wrap;html=1;direction=east;" vertex="1" parent="IHDmYLQubq7b0O7IPrWK-13">
          <mxGeometry y="310" width="140" height="200" as="geometry" />
        </mxCell>
        <mxCell id="H7HSWciS5RbThtjPVSTO-9" value="player collider &quot;Exit&quot;" style="html=1;verticalAlign=bottom;startArrow=oval;startFill=1;endArrow=block;startSize=8;rounded=0;entryX=0.5;entryY=0.025;entryDx=0;entryDy=0;entryPerimeter=0;" edge="1" parent="IHDmYLQubq7b0O7IPrWK-13" target="H7HSWciS5RbThtjPVSTO-8">
          <mxGeometry x="0.1111" y="1" width="60" relative="1" as="geometry">
            <mxPoint x="-105" y="550" as="sourcePoint" />
            <mxPoint x="404.5" y="550" as="targetPoint" />
            <mxPoint as="offset" />
          </mxGeometry>
        </mxCell>
        <mxCell id="IHDmYLQubq7b0O7IPrWK-14" value="" style="shape=umlLifeline;participant=umlActor;perimeter=lifelinePerimeter;whiteSpace=wrap;html=1;container=1;collapsible=0;recursiveResize=0;verticalAlign=top;spacingTop=36;outlineConnect=0;" vertex="1" parent="1">
          <mxGeometry x="60" y="60" width="20" height="1030" as="geometry" />
        </mxCell>
        <mxCell id="IHDmYLQubq7b0O7IPrWK-15" value="" style="points=[];perimeter=orthogonalPerimeter;rounded=0;shadow=0;strokeWidth=1;" vertex="1" parent="IHDmYLQubq7b0O7IPrWK-14">
          <mxGeometry x="5" y="100" width="10" height="590" as="geometry" />
        </mxCell>
        <mxCell id="H7HSWciS5RbThtjPVSTO-17" value="livello successivo giocabile" style="html=1;verticalAlign=bottom;endArrow=open;dashed=1;endSize=8;rounded=0;entryX=0.3;entryY=0;entryDx=0;entryDy=0;entryPerimeter=0;" edge="1" parent="IHDmYLQubq7b0O7IPrWK-14">
          <mxGeometry relative="1" as="geometry">
            <mxPoint x="320" y="690" as="sourcePoint" />
            <mxPoint x="5" y="690" as="targetPoint" />
          </mxGeometry>
        </mxCell>
        <mxCell id="H7HSWciS5RbThtjPVSTO-32" value="" style="points=[];perimeter=orthogonalPerimeter;rounded=0;shadow=0;strokeWidth=1;" vertex="1" parent="IHDmYLQubq7b0O7IPrWK-14">
          <mxGeometry x="5" y="830" width="10" height="200" as="geometry" />
        </mxCell>
        <mxCell id="IHDmYLQubq7b0O7IPrWK-20" value="Exit&#xa;" style="shape=umlLifeline;perimeter=lifelinePerimeter;container=1;collapsible=0;recursiveResize=0;rounded=0;shadow=0;strokeWidth=1;" vertex="1" parent="1">
          <mxGeometry x="850" y="60" width="120" height="1070" as="geometry" />
        </mxCell>
        <mxCell id="H7HSWciS5RbThtjPVSTO-8" value="" style="points=[];perimeter=orthogonalPerimeter;rounded=0;shadow=0;strokeWidth=1;" vertex="1" parent="IHDmYLQubq7b0O7IPrWK-20">
          <mxGeometry x="55" y="550" width="10" height="80" as="geometry" />
        </mxCell>
        <mxCell id="H7HSWciS5RbThtjPVSTO-19" value="&lt;div&gt;alt&lt;/div&gt;" style="shape=umlFrame;whiteSpace=wrap;html=1;direction=east;" vertex="1" parent="IHDmYLQubq7b0O7IPrWK-20">
          <mxGeometry x="-310" y="700" width="550" height="370" as="geometry" />
        </mxCell>
        <mxCell id="IHDmYLQubq7b0O7IPrWK-39" value="[if enemy health &lt;= 0]" style="text;align=center;fontStyle=1;verticalAlign=middle;spacingLeft=3;spacingRight=3;strokeColor=none;rotatable=0;points=[[0,0.5],[1,0.5]];portConstraint=eastwest;" vertex="1" parent="IHDmYLQubq7b0O7IPrWK-20">
          <mxGeometry x="-60" y="310" width="80" height="26" as="geometry" />
        </mxCell>
        <mxCell id="H7HSWciS5RbThtjPVSTO-22" value="[if player health &lt;= 0]" style="text;align=center;fontStyle=1;verticalAlign=middle;spacingLeft=3;spacingRight=3;strokeColor=none;rotatable=0;points=[[0,0.5],[1,0.5]];portConstraint=eastwest;" vertex="1" parent="IHDmYLQubq7b0O7IPrWK-20">
          <mxGeometry x="-220" y="700" width="80" height="26" as="geometry" />
        </mxCell>
        <mxCell id="H7HSWciS5RbThtjPVSTO-23" value="" style="points=[];perimeter=orthogonalPerimeter;rounded=0;shadow=0;strokeWidth=1;" vertex="1" parent="IHDmYLQubq7b0O7IPrWK-20">
          <mxGeometry x="-275" y="750" width="10" height="60" as="geometry" />
        </mxCell>
        <mxCell id="IHDmYLQubq7b0O7IPrWK-22" value="" style="edgeStyle=orthogonalEdgeStyle;html=1;align=left;spacingLeft=2;endArrow=block;rounded=0;labelBackgroundColor=default;labelBorderColor=none;" edge="1" parent="IHDmYLQubq7b0O7IPrWK-20">
          <mxGeometry relative="1" as="geometry">
            <mxPoint x="65" y="550" as="sourcePoint" />
            <Array as="points">
              <mxPoint x="95" y="550" />
              <mxPoint x="95" y="630" />
            </Array>
            <mxPoint x="67" y="630" as="targetPoint" />
          </mxGeometry>
        </mxCell>
        <mxCell id="H7HSWciS5RbThtjPVSTO-11" value="level += 1" style="edgeLabel;html=1;align=center;verticalAlign=middle;resizable=0;points=[];" vertex="1" connectable="0" parent="IHDmYLQubq7b0O7IPrWK-22">
          <mxGeometry x="-0.2464" y="1" relative="1" as="geometry">
            <mxPoint x="9" as="offset" />
          </mxGeometry>
        </mxCell>
        <mxCell id="H7HSWciS5RbThtjPVSTO-24" value="PlayerManager.takeDamage(int damage)" style="html=1;verticalAlign=bottom;startArrow=oval;startFill=1;endArrow=block;startSize=8;rounded=0;entryX=0;entryY=0;entryDx=0;entryDy=0;entryPerimeter=0;" edge="1" parent="IHDmYLQubq7b0O7IPrWK-20" target="H7HSWciS5RbThtjPVSTO-25">
          <mxGeometry x="0.1111" y="1" width="60" relative="1" as="geometry">
            <mxPoint x="-265" y="750" as="sourcePoint" />
            <mxPoint x="60" y="752" as="targetPoint" />
            <mxPoint as="offset" />
          </mxGeometry>
        </mxCell>
        <mxCell id="H7HSWciS5RbThtjPVSTO-26" value="" style="edgeStyle=orthogonalEdgeStyle;html=1;align=left;spacingLeft=2;endArrow=block;rounded=0;labelBackgroundColor=default;labelBorderColor=none;" edge="1" parent="IHDmYLQubq7b0O7IPrWK-20">
          <mxGeometry relative="1" as="geometry">
            <mxPoint x="200" y="767" as="sourcePoint" />
            <Array as="points">
              <mxPoint x="200" y="750" />
              <mxPoint x="230" y="750" />
              <mxPoint x="230" y="827" />
            </Array>
            <mxPoint x="202" y="827" as="targetPoint" />
          </mxGeometry>
        </mxCell>
        <mxCell id="H7HSWciS5RbThtjPVSTO-28" value="&lt;div&gt;mostra menu di GamerOver&lt;/div&gt;" style="html=1;verticalAlign=bottom;endArrow=open;dashed=1;endSize=8;rounded=0;" edge="1" parent="IHDmYLQubq7b0O7IPrWK-20" target="IHDmYLQubq7b0O7IPrWK-14">
          <mxGeometry relative="1" as="geometry">
            <mxPoint x="205" y="830" as="sourcePoint" />
            <mxPoint x="-110" y="830" as="targetPoint" />
          </mxGeometry>
        </mxCell>
        <mxCell id="H7HSWciS5RbThtjPVSTO-41" value="esci dal gioco" style="html=1;verticalAlign=bottom;endArrow=open;dashed=1;endSize=8;rounded=0;entryX=0.8;entryY=0.995;entryDx=0;entryDy=0;entryPerimeter=0;" edge="1" parent="IHDmYLQubq7b0O7IPrWK-20" target="H7HSWciS5RbThtjPVSTO-32">
          <mxGeometry x="0.2487" y="-9" relative="1" as="geometry">
            <mxPoint x="200" y="1030" as="sourcePoint" />
            <mxPoint x="-110" y="1030" as="targetPoint" />
            <mxPoint as="offset" />
          </mxGeometry>
        </mxCell>
        <mxCell id="IHDmYLQubq7b0O7IPrWK-21" value="GameOver" style="shape=umlLifeline;perimeter=lifelinePerimeter;container=1;collapsible=0;recursiveResize=0;rounded=0;shadow=0;strokeWidth=1;" vertex="1" parent="1">
          <mxGeometry x="1000" y="60" width="100" height="1030" as="geometry" />
        </mxCell>
        <mxCell id="H7HSWciS5RbThtjPVSTO-25" value="" style="points=[];perimeter=orthogonalPerimeter;rounded=0;shadow=0;strokeWidth=1;" vertex="1" parent="IHDmYLQubq7b0O7IPrWK-21">
          <mxGeometry x="45" y="750" width="10" height="80" as="geometry" />
        </mxCell>
        <mxCell id="H7HSWciS5RbThtjPVSTO-37" value="" style="points=[];perimeter=orthogonalPerimeter;rounded=0;shadow=0;strokeWidth=1;" vertex="1" parent="IHDmYLQubq7b0O7IPrWK-21">
          <mxGeometry x="45" y="860" width="10" height="60" as="geometry" />
        </mxCell>
        <mxCell id="H7HSWciS5RbThtjPVSTO-40" value="" style="points=[];perimeter=orthogonalPerimeter;rounded=0;shadow=0;strokeWidth=1;" vertex="1" parent="IHDmYLQubq7b0O7IPrWK-21">
          <mxGeometry x="45" y="970" width="10" height="60" as="geometry" />
        </mxCell>
        <mxCell id="IHDmYLQubq7b0O7IPrWK-3" value="premi &quot;Arrowkeys&quot;" style="html=1;verticalAlign=bottom;startArrow=oval;startFill=1;endArrow=block;startSize=8;rounded=0;entryX=-0.2;entryY=-0.017;entryDx=0;entryDy=0;entryPerimeter=0;" edge="1" parent="1" target="IHDmYLQubq7b0O7IPrWK-11">
          <mxGeometry x="0.0042" width="60" relative="1" as="geometry">
            <mxPoint x="70" y="160" as="sourcePoint" />
            <mxPoint x="247" y="180.06000000000003" as="targetPoint" />
            <mxPoint as="offset" />
          </mxGeometry>
        </mxCell>
        <mxCell id="IHDmYLQubq7b0O7IPrWK-23" value="player si muove" style="html=1;verticalAlign=bottom;endArrow=open;dashed=1;endSize=8;rounded=0;" edge="1" parent="1" source="IHDmYLQubq7b0O7IPrWK-11">
          <mxGeometry relative="1" as="geometry">
            <mxPoint x="390" y="220" as="sourcePoint" />
            <mxPoint x="70" y="240" as="targetPoint" />
          </mxGeometry>
        </mxCell>
        <mxCell id="IHDmYLQubq7b0O7IPrWK-28" value="&lt;div&gt;premi &quot;A keys&quot;&lt;/div&gt;" style="html=1;verticalAlign=bottom;startArrow=oval;startFill=1;endArrow=block;startSize=8;rounded=0;" edge="1" parent="1" target="IHDmYLQubq7b0O7IPrWK-12">
          <mxGeometry x="0.0042" width="60" relative="1" as="geometry">
            <mxPoint x="70" y="281" as="sourcePoint" />
            <mxPoint x="373" y="280" as="targetPoint" />
            <mxPoint as="offset" />
          </mxGeometry>
        </mxCell>
        <mxCell id="IHDmYLQubq7b0O7IPrWK-33" value="nuovo attacco" style="html=1;verticalAlign=bottom;endArrow=open;dashed=1;endSize=8;rounded=0;exitX=-0.25;exitY=1;exitDx=0;exitDy=0;exitPerimeter=0;" edge="1" parent="1" source="IHDmYLQubq7b0O7IPrWK-29" target="IHDmYLQubq7b0O7IPrWK-14">
          <mxGeometry relative="1" as="geometry">
            <mxPoint x="682.5" y="380.9000000000001" as="sourcePoint" />
            <mxPoint x="570" y="380" as="targetPoint" />
          </mxGeometry>
        </mxCell>
        <mxCell id="H7HSWciS5RbThtjPVSTO-13" value="crea mappa per il prossimo livello" style="html=1;verticalAlign=bottom;endArrow=open;dashed=1;endSize=8;rounded=0;entryX=0.3;entryY=0;entryDx=0;entryDy=0;entryPerimeter=0;" edge="1" parent="1" source="H7HSWciS5RbThtjPVSTO-8" target="H7HSWciS5RbThtjPVSTO-12">
          <mxGeometry relative="1" as="geometry">
            <mxPoint x="893" y="690" as="sourcePoint" />
            <mxPoint x="390" y="690" as="targetPoint" />
          </mxGeometry>
        </mxCell>
        <mxCell id="H7HSWciS5RbThtjPVSTO-14" value="GenerateMap (int level)" style="edgeStyle=orthogonalEdgeStyle;html=1;align=left;spacingLeft=2;endArrow=block;rounded=0;labelBackgroundColor=default;labelBorderColor=none;entryX=0.51;entryY=0.865;entryDx=0;entryDy=0;entryPerimeter=0;" edge="1" parent="1">
          <mxGeometry relative="1" as="geometry">
            <mxPoint x="390" y="690" as="sourcePoint" />
            <Array as="points">
              <mxPoint x="420" y="690" />
              <mxPoint x="420" y="752" />
            </Array>
            <mxPoint x="381" y="752" as="targetPoint" />
          </mxGeometry>
        </mxCell>
        <mxCell id="H7HSWciS5RbThtjPVSTO-34" value="premi &quot;RESTART&quot;" style="html=1;verticalAlign=bottom;startArrow=oval;startFill=1;endArrow=block;startSize=8;rounded=0;entryX=0.5;entryY=0.033;entryDx=0;entryDy=0;entryPerimeter=0;" edge="1" parent="1" target="H7HSWciS5RbThtjPVSTO-37">
          <mxGeometry x="0.0042" width="60" relative="1" as="geometry">
            <mxPoint x="70" y="920" as="sourcePoint" />
            <mxPoint x="380" y="920" as="targetPoint" />
            <mxPoint as="offset" />
          </mxGeometry>
        </mxCell>
        <mxCell id="H7HSWciS5RbThtjPVSTO-33" value="" style="points=[];perimeter=orthogonalPerimeter;rounded=0;shadow=0;strokeWidth=1;" vertex="1" parent="1">
          <mxGeometry x="375" y="980" width="10" height="30" as="geometry" />
        </mxCell>
        <mxCell id="H7HSWciS5RbThtjPVSTO-35" value="&lt;div&gt;crea nuova mappa&lt;/div&gt;" style="html=1;verticalAlign=bottom;endArrow=open;dashed=1;endSize=8;rounded=0;exitX=0.49;exitY=0.894;exitDx=0;exitDy=0;exitPerimeter=0;" edge="1" parent="1" source="IHDmYLQubq7b0O7IPrWK-21" target="H7HSWciS5RbThtjPVSTO-33">
          <mxGeometry relative="1" as="geometry">
            <mxPoint x="1062.5" y="980" as="sourcePoint" />
            <mxPoint x="757.5" y="980" as="targetPoint" />
          </mxGeometry>
        </mxCell>
        <mxCell id="H7HSWciS5RbThtjPVSTO-38" value="gioca nuova partita" style="html=1;verticalAlign=bottom;endArrow=open;dashed=1;endSize=8;rounded=0;" edge="1" parent="1">
          <mxGeometry relative="1" as="geometry">
            <mxPoint x="380" y="1010" as="sourcePoint" />
            <mxPoint x="70" y="1010.0000000000001" as="targetPoint" />
          </mxGeometry>
        </mxCell>
        <mxCell id="H7HSWciS5RbThtjPVSTO-39" value="premi &quot;QUIT&quot;" style="html=1;verticalAlign=bottom;startArrow=oval;startFill=1;endArrow=block;startSize=8;rounded=0;entryX=0.5;entryY=0.033;entryDx=0;entryDy=0;entryPerimeter=0;" edge="1" parent="1">
          <mxGeometry x="0.6122" y="2" width="60" relative="1" as="geometry">
            <mxPoint x="70" y="1030" as="sourcePoint" />
            <mxPoint x="1050" y="1031.98" as="targetPoint" />
            <mxPoint as="offset" />
          </mxGeometry>
        </mxCell>
      </root>
    </mxGraphModel>
  </diagram>
</mxfile>
